<?xml version="1.0" standalone="no"?>
<!DOCTYPE svg PUBLIC "-//W3C//DTD SVG 20010904//EN"
 "http://www.w3.org/TR/2001/REC-SVG-20010904/DTD/svg10.dtd">
<svg version="1.0" xmlns="http://www.w3.org/2000/svg"
 width="136.000000pt" height="136.000000pt" viewBox="0 0 136.000000 136.000000"
 preserveAspectRatio="xMidYMid meet">
<metadata>
Created by potrace 1.11, written by Peter Selinger 2001-2013
</metadata>
<g transform="translate(0.000000,136.000000) scale(0.100000,-0.100000)"
fill="#000000" stroke="none">
<path d="M658 1355 c-2 -2 -23 -6 -47 -9 -25 -3 -47 -9 -50 -14 -5 -6 -103
-41 -131 -47 -41 -8 -86 -34 -114 -65 -36 -40 -74 -106 -82 -144 -11 -44 -5
-225 10 -321 2 -11 -5 -30 -15 -43 -15 -20 -16 -27 -4 -60 7 -20 35 -109 61
-197 26 -88 56 -178 66 -200 30 -65 115 -163 175 -203 55 -36 59 -37 147 -37
125 1 161 14 229 81 90 88 166 273 167 406 0 18 7 41 15 52 9 12 11 25 5 41
-11 28 -9 40 20 120 24 66 30 173 17 305 -10 102 -17 116 -96 192 -57 55 -80
70 -128 84 -32 9 -71 26 -86 36 -20 14 -48 21 -92 23 -36 1 -66 1 -67 0z m106
-230 c-4 -9 18 -41 59 -85 35 -38 64 -78 64 -87 0 -42 5 -51 31 -62 15 -6 43
-13 62 -16 19 -4 39 -10 44 -15 12 -12 18 -228 7 -235 -5 -2 -16 6 -25 20 -18
27 -44 33 -52 12 -3 -8 -19 -13 -37 -12 -18 1 -43 -3 -57 -8 -32 -12 -214 -9
-218 4 -2 5 -29 9 -60 9 -30 0 -70 5 -88 12 -27 10 -37 9 -60 -7 -17 -11 -23
-20 -16 -23 13 -4 17 -32 4 -32 -11 0 -46 39 -61 67 -17 33 -13 77 8 105 11
14 18 33 15 44 -7 28 11 71 31 71 9 0 14 -6 11 -14 -4 -9 4 -13 24 -13 21 0
31 6 36 23 5 12 7 26 5 32 -1 5 6 2 17 -8 23 -21 56 -23 49 -3 -3 7 0 19 6 25
6 6 10 29 9 51 -3 37 -1 40 40 58 24 11 51 22 61 26 11 3 21 15 24 26 3 11 14
20 24 20 11 0 22 7 25 15 4 8 10 15 15 15 4 0 6 -7 3 -15z m253 -530 c3 -9 -1
-23 -10 -33 -8 -9 -17 -33 -21 -53 -8 -47 -21 -56 -76 -54 -66 2 -100 21 -100
57 0 16 -4 38 -10 48 -8 15 -5 19 23 23 20 3 38 -1 49 -10 15 -13 19 -12 37 6
26 26 31 26 31 2 0 -11 -10 -22 -22 -26 -19 -6 -20 -8 -6 -12 24 -6 57 14 68
43 11 27 28 31 37 9z m-487 -20 c16 -19 36 -19 44 0 4 12 14 14 43 9 53 -9 56
-13 39 -39 -11 -16 -12 -26 -5 -31 6 -4 -3 -18 -23 -35 -27 -23 -40 -27 -73
-23 -96 10 -112 21 -122 85 -6 39 16 47 43 16 19 -22 32 -27 68 -27 54 0 76 8
76 26 0 11 -4 12 -19 4 -39 -20 -101 -7 -101 22 0 13 17 9 30 -7z m239 -24 c6
-10 8 -21 5 -23 -6 -6 16 -58 31 -74 34 -36 115 -39 183 -6 23 11 42 19 42 17
0 -2 -7 -35 -15 -74 -31 -146 -103 -258 -210 -322 -70 -42 -232 -26 -251 26
-3 8 -12 11 -20 8 -23 -9 -103 82 -135 153 -31 69 -36 95 -16 91 26 -5 2 90
-30 117 -26 23 -27 24 -10 50 23 34 34 33 35 -5 1 -31 17 -59 34 -59 6 0 8 10
4 23 -17 61 -16 70 4 31 40 -79 134 -102 202 -50 19 14 42 26 52 26 20 0 32
28 35 78 1 19 49 14 60 -7z"/>
<path d="M732 1076 c-13 -31 -8 -46 9 -29 6 6 9 21 7 34 -4 24 -5 23 -16 -5z"/>
<path d="M632 1015 c-7 -14 -12 -31 -12 -38 1 -17 40 32 40 49 0 23 -16 16
-28 -11z"/>
<path d="M830 560 c0 -11 42 -31 49 -24 2 2 -2 10 -9 19 -14 17 -40 20 -40 5z"/>
<path d="M636 448 c-20 -29 -20 -62 0 -82 18 -18 30 -20 39 -6 4 6 13 7 23 1
28 -14 89 -12 103 5 20 24 -1 35 -44 22 -31 -10 -40 -9 -56 6 -17 16 -20 16
-35 1 -15 -15 -16 -15 -16 4 0 11 5 23 10 26 13 8 13 45 1 45 -6 0 -17 -10
-25 -22z"/>
<path d="M669 276 c-3 -3 -19 -7 -35 -9 -35 -4 -54 -14 -54 -28 0 -6 4 -8 8
-5 14 9 164 10 210 2 46 -8 58 5 21 24 -23 13 -141 25 -150 16z"/>
<path d="M675 210 c-10 -17 46 -33 72 -21 13 6 23 15 23 21 0 13 -87 13 -95 0z"/>
</g>
</svg>
